<svg width="232" height="232" viewBox="0 0 232 232" fill="none" xmlns="http://www.w3.org/2000/svg">
<path fill-rule="evenodd" clip-rule="evenodd" d="M0 115.983C0 51.9271 51.9312 0 115.992 0C180.051 0 231.974 51.9271 231.974 115.983C231.974 180.034 180.051 231.974 115.992 231.974C51.9312 231.974 0 180.034 0 115.983ZM138.128 12.4511V12.4558L138.115 12.4535C137.965 12.4266 137.811 12.3989 137.663 12.3989C136.439 12.3989 135.429 13.4008 135.429 14.6151C135.429 15.593 136.077 16.4158 136.956 16.714V16.7269C173.658 27.7693 211.537 60.1981 211.537 113.804C211.537 131.091 206.701 150.929 198.243 164.311C191.305 175.308 178.621 188.534 157.746 189.065L157.134 189.077C150.228 189.077 142.868 186.518 136.369 184.258L136.313 184.239C129.579 181.882 122.62 179.449 115.985 179.449C109.366 179.449 102.43 181.873 95.6965 184.226L95.6963 184.226L95.6585 184.239L95.6219 184.252C89.1165 186.513 81.7402 189.077 74.8538 189.077L74.2328 189.065C53.3483 188.534 40.6824 175.308 33.7291 164.311C25.2686 150.929 20.4317 131.091 20.4317 113.804C20.4317 60.1981 58.3242 27.7693 95.0235 16.7269L95.0276 16.714C95.8892 16.4158 96.5442 15.593 96.5442 14.6151C96.5442 13.4008 95.5347 12.3989 94.3133 12.3989C94.1496 12.3989 93.9893 12.4283 93.8532 12.4558V12.4511C45.1354 23.054 10.2456 67.2031 10.8836 117.418C11.3097 150.632 22.6837 170.45 32.155 181.215C43.5595 194.194 58.7826 201.628 73.9347 201.628H74.1289C83.9187 201.578 92.2616 199.059 99.6344 196.832L99.6878 196.816L99.8193 196.777C105.826 194.97 111.017 193.409 115.985 193.409C120.955 193.409 126.144 194.968 132.151 196.774L132.151 196.774L132.291 196.816L132.326 196.827C139.696 199.055 148.044 201.578 157.836 201.628H158.026C173.176 201.628 188.414 194.194 199.824 181.215C209.287 170.45 220.666 150.632 221.084 117.418C221.724 67.2031 186.834 23.054 138.128 12.4511ZM93.1798 174.108C89.5555 175.616 82.1433 178.117 73.4227 178.117C59.3934 178.117 47.9026 171.842 39.2102 159.467C38.9743 159.112 38.8152 158.65 38.8152 158.192C38.8152 156.951 39.8159 155.946 41.0631 155.946C41.5679 155.946 42.0439 156.107 42.423 156.391C50.8977 162.643 59.5448 166.823 68.7027 166.823C75.0943 166.823 81.7553 165.391 89.0502 162.451C99.0561 158.431 107.666 156.556 116.146 156.556C124.613 156.556 133.235 158.431 143.245 162.451C150.544 165.391 157.198 166.823 163.601 166.823C172.757 166.823 181.422 162.643 189.868 156.391C190.252 156.107 190.719 155.946 191.238 155.946C192.482 155.946 193.489 156.951 193.489 158.192C193.489 158.65 193.328 159.112 193.1 159.467C184.402 171.842 172.905 178.117 158.867 178.117C150.156 178.117 142.746 175.616 139.115 174.108C130.606 170.604 123.084 168.915 116.146 168.915C109.195 168.915 101.702 170.604 93.1798 174.108ZM158.642 208.945C158.598 208.945 158.556 208.945 158.515 208.945C158.454 208.946 158.395 208.947 158.334 208.95C156.802 209.193 155.307 209.319 153.964 209.33L152.761 209.349L151.999 209.349H151.999C143.768 209.35 140.18 209.351 134.857 207.758L131.27 206.702L131.205 206.683C126.908 205.435 121.591 203.891 115.969 203.891C110.322 203.891 104.982 205.447 100.691 206.697L100.691 206.697L100.676 206.702L97.0902 207.758C91.7408 209.351 88.1638 209.35 79.9388 209.349H79.9386L79.1766 209.349L77.9816 209.33C76.6235 209.319 75.1304 209.193 73.5885 208.95C73.4958 208.945 73.3907 208.945 73.308 208.945C72.1335 208.945 71.1645 209.83 71.1645 210.953C71.1645 211.764 71.6387 212.442 72.3612 212.747C85.2519 218.058 101.718 221.467 115.969 221.474C130.208 221.467 146.663 218.058 159.57 212.747C160.29 212.442 160.765 211.764 160.765 210.953C160.765 209.83 159.813 208.945 158.642 208.945ZM36.7334 71.6396H56.1671C57.8469 71.6396 59.2338 73.0189 59.2338 74.6934C59.2338 76.3797 57.8469 77.7642 56.1671 77.7642H49.779V98.7961C49.779 100.655 48.3129 102.123 46.4523 102.123C44.5953 102.123 43.1315 100.655 43.1315 98.7961V77.7642H36.7334C35.0572 77.7642 33.6785 76.3797 33.6785 74.6934C33.6785 73.0189 35.0572 71.6396 36.7334 71.6396ZM65.4069 71.2763C63.5974 71.2763 62.1348 72.7483 62.1348 74.5537V98.8442C62.1348 100.655 63.5974 102.123 65.4069 102.123C67.2269 102.123 68.6843 100.655 68.6843 98.8442V88.9481C68.6843 85.8438 70.2807 84.2445 72.7945 84.2445C75.2948 84.2445 76.7539 85.8438 76.7539 88.9481V98.8442C76.7539 100.655 78.2389 102.123 80.0542 102.123C81.852 102.123 83.3258 100.655 83.3258 98.8442V86.885C83.3258 81.5663 80.4457 78.2895 75.478 78.2895C72.156 78.2895 70.2097 80.0491 68.6843 81.9971V74.5537C68.6843 72.7483 67.2269 71.2763 65.4069 71.2763ZM122.173 98.8442C122.173 100.655 120.688 102.123 118.878 102.123C117.08 102.123 115.592 100.655 115.592 98.8442V81.7454C115.592 79.9259 117.08 78.4627 118.878 78.4627C120.688 78.4627 122.173 79.9259 122.173 81.7454V81.9971C123.689 80.0491 125.672 78.2907 128.987 78.2907C132.011 78.2907 134.309 79.6271 135.525 81.9537C137.539 79.5872 139.956 78.2907 143.112 78.2907C147.984 78.2907 150.918 81.2265 150.918 86.7935V98.8442C150.918 100.655 149.459 102.123 147.642 102.123C145.83 102.123 144.358 100.655 144.358 98.8442V88.9493C144.358 85.8433 142.983 84.2439 140.521 84.2439C138.055 84.2439 136.551 85.8433 136.551 88.9493V98.8442C136.551 100.655 135.08 102.123 133.283 102.123C131.46 102.123 129.984 100.655 129.984 98.8442V88.9493C129.984 85.8433 128.603 84.2439 126.138 84.2439C123.689 84.2439 122.173 85.8433 122.173 88.9493V98.8442ZM53.3076 111.181C53.3076 111.571 53.435 112.052 53.5741 112.433L62.0206 136.187C62.6351 137.881 63.8852 138.902 65.4823 138.902H66.176C67.7771 138.902 68.9921 137.91 69.5778 136.187L75.5481 118.88L81.4972 136.187C82.1134 137.91 83.3108 138.902 84.9154 138.902H85.6098C87.2127 138.902 88.4581 137.881 89.0644 136.187L97.5173 112.433C97.66 112.052 97.7832 111.523 97.7832 111.141C97.7832 109.331 96.3153 107.947 94.5005 107.947C92.8677 107.947 91.7437 109.027 91.3053 110.322L85.3075 128.851L79.2592 110.495C78.7392 108.898 77.5777 107.851 75.899 107.851H75.3773C73.6898 107.851 72.5154 108.938 72.0071 110.495L65.9688 128.851L59.9563 110.322C59.5249 108.938 58.2707 107.947 56.7171 107.947C54.8665 107.947 53.3076 109.331 53.3076 111.181ZM127.415 112.388C127.415 110.578 128.875 109.108 130.695 109.108C132.508 109.108 133.788 110.578 133.788 112.388V115.278H136.877C138.428 115.278 139.679 116.373 139.679 117.926C139.679 119.475 138.428 120.61 136.877 120.61H133.788V131.172C133.788 132.686 134.447 133.416 135.912 133.416C136.124 133.416 136.609 133.38 136.896 133.34C138.601 133.112 139.58 134 139.642 135.608C139.689 136.778 138.966 137.753 137.909 138.177C136.701 138.662 135.571 138.826 134.159 138.826C130.141 138.826 127.415 137.22 127.415 131.871V120.61H126.79C125.251 120.61 123.983 119.475 123.983 117.926C123.983 116.373 125.251 115.278 126.79 115.278H127.415V112.388ZM172.663 119.35V118.301C172.663 116.494 171.201 115.027 169.381 115.027C167.571 115.027 166.107 116.494 166.107 118.301V135.412C166.107 137.221 167.571 138.696 169.381 138.696C171.201 138.696 172.663 137.221 172.663 135.412V129.273C172.663 124.625 174.53 122.074 177.839 121.285C179.181 120.992 180.343 119.932 180.343 118.215C180.343 116.352 179.138 115.027 177.114 115.027C175.169 115.027 173.465 117.118 172.663 119.35ZM115.162 126.616C115.162 122.388 111.936 120.286 109.107 120.286C105.636 120.286 103.111 122.813 103.111 126.647C103.111 129.844 105.393 133.07 109.107 133.07C113.124 133.07 115.162 130.149 115.162 126.616ZM115.072 135.434C113.537 137.631 110.494 138.782 108.193 138.782C101.058 138.782 96.6075 133.277 96.6075 126.731C96.6075 120.562 100.741 114.637 107.969 114.637C111.072 114.637 113.746 115.965 115.072 117.883C115.314 115.734 116.872 114.811 118.291 114.811C120.48 114.811 121.659 116.337 121.659 118.156V135.324C121.659 137.134 120.229 138.603 118.318 138.603C116.76 138.603 115.254 137.566 115.072 135.434ZM99.0159 83.846C101.847 83.846 105.072 85.9454 105.072 90.1777C105.072 93.7063 103.033 96.628 99.0159 96.628C95.3024 96.628 93.0198 93.4035 93.0198 90.2065C93.0198 86.3727 95.5465 83.846 99.0159 83.846ZM98.1026 102.341C100.403 102.341 103.447 101.19 104.981 98.9933C105.163 101.124 106.671 102.162 108.227 102.162C110.139 102.162 111.57 100.694 111.57 98.8824V81.7149C111.57 79.896 110.39 78.3706 108.2 78.3706C106.781 78.3706 105.224 79.292 104.981 81.4414C103.655 79.525 100.981 78.1968 97.8778 78.1968C90.6516 78.1968 86.5167 84.1201 86.5167 90.2892C86.5167 96.8364 90.9668 102.341 98.1026 102.341ZM151.855 120.136C149.583 120.136 147.503 121.661 146.875 124.806H156.695C156.193 121.671 154.23 120.136 151.855 120.136ZM151.764 114.884C159.161 114.884 162.721 120.531 162.995 125.369C163.133 127.813 161.976 129.251 159.359 129.251H146.944C147.706 132.395 150.026 133.712 152.54 133.712C154.519 133.712 155.842 133.147 157.243 132.142C158.737 131.071 160.372 131.46 161.098 132.486C161.905 133.628 161.675 135.163 160.484 136.19C158.491 137.91 155.814 138.96 152.434 138.96C145.115 138.96 140.371 133.77 140.371 126.891C140.371 119.68 145.739 114.884 151.764 114.884ZM160.647 88.2026C161.275 85.0567 163.356 83.5307 165.626 83.5307C168 83.5307 169.964 85.0685 170.466 88.2026H160.647ZM176.767 88.7655C176.493 83.9269 172.932 78.2806 165.536 78.2806C159.51 78.2806 154.142 83.0747 154.142 90.2874C154.142 97.1668 158.886 102.356 166.206 102.356C169.584 102.356 172.262 101.304 174.256 99.5861C175.446 98.5578 175.676 97.0236 174.87 95.8832C174.143 94.8561 172.507 94.4663 171.014 95.5375C169.614 96.5417 168.29 97.1087 166.312 97.1087C163.796 97.1087 161.477 95.791 160.717 92.6463H173.13C175.748 92.6463 176.906 91.2101 176.767 88.7655ZM193.672 84.8813C191.755 83.8671 189.807 83.4257 188.559 83.3958C186.46 83.3436 185.571 84.1412 185.556 85.0703C185.541 86.0898 186.468 86.4924 187.434 86.8035C187.861 86.9422 188.678 87.1614 189.591 87.4064C190.695 87.7028 191.939 88.0369 192.805 88.3119C196.503 89.4822 198.094 91.5077 198.094 94.8245C198.094 99.2071 194.691 102.244 188.645 102.244C185.582 102.244 182.517 101.262 180.705 100.15C179.721 99.5451 179.081 98.0913 179.809 96.6797C180.554 95.2347 182.289 95.1279 183.355 95.6608C184.908 96.4368 186.723 97.0847 188.59 97.1675C190.629 97.2585 192.182 96.6357 192.237 95.3521C192.288 94.1871 191.117 93.7287 189.802 93.4041C189.588 93.3512 189.148 93.2537 188.603 93.1331C187.196 92.8215 185.092 92.3555 184.404 92.1058C181.619 91.0963 179.671 89.2692 179.671 85.6326C179.671 81.6303 183.132 78.3435 188.407 78.3435C192.075 78.3435 194.573 79.1635 196.244 80.3673C197.477 81.2559 197.857 82.7572 197.065 84.1113C196.298 85.4254 194.689 85.4201 193.672 84.8813Z" fill="#009EDE"/>
</svg>
